<?xml version="1.0" encoding="utf-8"?><svg viewBox="0 0 1008 635" xmlns="http://www.w3.org/2000/svg" xmlns:xlink="http://www.w3.org/1999/xlink"><style>:root>svg{display:none}:root>svg:target{display:block}</style><svg fill="none" viewBox="0 0 26 26" id="arrow" xmlns="http://www.w3.org/2000/svg"><path fill-rule="evenodd" clip-rule="evenodd" d="M1.625 13a11.375 11.375 0 1022.75 0 11.375 11.375 0 00-22.75 0zM26 13a13 13 0 11-26 0 13 13 0 0126 0zm-7.313-.813a.812.812 0 110 1.626H9.274l3.489 3.487a.815.815 0 01-.264 1.327.813.813 0 01-.887-.177l-4.875-4.875a.813.813 0 010-1.15l4.875-4.875a.814.814 0 011.15 1.15l-3.488 3.488h9.414z" fill="#110303"/></svg><svg fill="none" viewBox="0 0 61 61" id="clear" xmlns="http://www.w3.org/2000/svg"><path d="M45 40c0 1.06-.398 2.078-1.106 2.828A3.674 3.674 0 0141.222 44H18.556L11 52V20c0-1.06.398-2.078 1.107-2.828A3.674 3.674 0 0114.777 16h26.445c1.002 0 1.963.421 2.672 1.172A4.122 4.122 0 0145 20v20z" stroke="#E87C40" stroke-width="5" stroke-linecap="round" stroke-linejoin="round"/><path d="M53 33c0 1.06-.398 2.078-1.106 2.828A3.674 3.674 0 0149.222 37H26.556L19 45V13c0-1.06.398-2.078 1.107-2.828A3.674 3.674 0 0122.776 9h26.445c1.002 0 1.963.421 2.672 1.172A4.122 4.122 0 0153 13v20z" stroke="#110303" stroke-width="5" stroke-linecap="round" stroke-linejoin="round"/></svg><svg fill="none" viewBox="0 0 61 61" id="copywright" xmlns="http://www.w3.org/2000/svg"><path d="M25.477 47l-2.848-7.647H12.557L9.744 47H6l9.809-25.805H19.5L29.256 47h-3.78zm-3.85-10.775l-2.707-7.577c-.082-.257-.211-.644-.387-1.16l-.51-1.6a218.78 218.78 0 01-.404-1.37c-.117.48-.252.99-.404 1.529a47.18 47.18 0 01-.457 1.494c-.14.457-.258.826-.352 1.107l-2.742 7.577h7.963zM39.732 27.295c2.391 0 4.178.533 5.362 1.6 1.183 1.054 1.775 2.724 1.775 5.01V47h-2.531l-.686-2.813h-.14a10.105 10.105 0 01-1.688 1.758A6.021 6.021 0 0139.785 47c-.762.234-1.693.352-2.795.352-1.172 0-2.215-.211-3.129-.633A4.93 4.93 0 0131.7 44.82c-.515-.855-.773-1.94-.773-3.252 0-1.968.756-3.462 2.267-4.482 1.512-1.02 3.803-1.576 6.873-1.67l3.34-.14v-1.09c0-1.512-.34-2.579-1.02-3.2-.667-.62-1.605-.931-2.812-.931-.996 0-1.951.146-2.865.44a19.8 19.8 0 00-2.637 1.019l-1.125-2.567c.914-.468 1.951-.861 3.112-1.177a14.034 14.034 0 013.673-.475zm3.64 10.3l-2.708.124c-2.238.082-3.814.457-4.729 1.125-.902.656-1.353 1.576-1.353 2.76 0 1.03.31 1.787.932 2.267.62.48 1.441.72 2.46.72 1.57 0 2.86-.439 3.868-1.318 1.02-.89 1.53-2.203 1.53-3.937v-1.74z" fill="#E87C40"/><path d="M30.477 43l-2.848-7.647H17.557L14.744 43H11l9.809-25.805H24.5L34.256 43h-3.78zm-3.85-10.775l-2.707-7.577c-.082-.257-.211-.644-.387-1.16l-.51-1.6a218.78 218.78 0 01-.404-1.37c-.117.48-.252.99-.404 1.529a47.18 47.18 0 01-.457 1.494c-.14.457-.258.826-.352 1.107l-2.742 7.577h7.963zM44.732 23.295c2.391 0 4.178.533 5.362 1.6 1.183 1.054 1.775 2.724 1.775 5.01V43h-2.531l-.686-2.813h-.14a10.105 10.105 0 01-1.688 1.758A6.021 6.021 0 0144.785 43c-.762.234-1.693.352-2.795.352-1.172 0-2.215-.211-3.129-.633A4.93 4.93 0 0136.7 40.82c-.515-.855-.773-1.94-.773-3.252 0-1.968.756-3.462 2.267-4.482 1.512-1.02 3.803-1.576 6.873-1.67l3.34-.14v-1.09c0-1.512-.34-2.579-1.02-3.2-.667-.62-1.605-.931-2.812-.931-.996 0-1.951.146-2.865.44a19.8 19.8 0 00-2.637 1.019l-1.125-2.567c.914-.468 1.951-.861 3.112-1.177a14.034 14.034 0 013.673-.475zm3.64 10.3l-2.708.124c-2.238.082-3.814.457-4.729 1.125-.902.656-1.353 1.576-1.353 2.76 0 1.03.31 1.787.932 2.267.62.48 1.441.72 2.46.72 1.57 0 2.86-.439 3.868-1.318 1.02-.89 1.53-2.203 1.53-3.937v-1.74z" fill="#110303"/></svg><svg fill="none" viewBox="0 0 61 61" id="cross" xmlns="http://www.w3.org/2000/svg"><path d="M40.352 48.272c3.35 0 6.067-2.706 6.067-6.045s-2.716-6.046-6.067-6.046-6.067 2.707-6.067 6.046c0 3.339 2.716 6.045 6.067 6.045zM16.083 24.09c3.351 0 6.067-2.706 6.067-6.045 0-3.338-2.716-6.045-6.067-6.045-3.35 0-6.067 2.707-6.067 6.045 0 3.34 2.716 6.046 6.067 6.046z" stroke="#E87C40" stroke-width="5" stroke-linecap="round" stroke-linejoin="round"/><path d="M30.24 18.045h6.067c1.073 0 2.101.425 2.86 1.18a4.023 4.023 0 011.185 2.85v14.107M16.083 24.09v24.182" stroke="#E87C40" stroke-width="5" stroke-linecap="round" stroke-linejoin="round"/><path d="M49.352 41.272c3.35 0 6.067-2.706 6.067-6.045s-2.716-6.046-6.067-6.046-6.067 2.707-6.067 6.046c0 3.339 2.716 6.045 6.067 6.045zM25.083 17.09c3.351 0 6.067-2.706 6.067-6.045C31.15 7.707 28.434 5 25.083 5c-3.35 0-6.067 2.707-6.067 6.045 0 3.34 2.716 6.046 6.067 6.046zM39.24 11.045h6.067c1.073 0 2.101.425 2.86 1.18a4.023 4.023 0 011.185 2.85v14.106M25.083 17.09v24.182" stroke="#110303" stroke-width="5" stroke-linecap="round" stroke-linejoin="round"/></svg><svg fill="none" viewBox="0 0 61 61" id="inclusive" xmlns="http://www.w3.org/2000/svg"><path d="M28.227 24.126C37.49 24.126 45 21.623 45 18.535s-7.51-5.591-16.773-5.591c-9.264 0-16.773 2.503-16.773 5.59 0 3.089 7.51 5.592 16.773 5.592zM45 31.58c0 3.095-7.455 5.592-16.773 5.592-9.319 0-16.773-2.497-16.773-5.591" stroke="#E87C40" stroke-width="4" stroke-linecap="round" stroke-linejoin="round"/><path d="M11.454 18.535v26.091c0 3.094 7.454 5.592 16.773 5.592C37.545 50.218 45 47.72 45 44.626V18.535" stroke="#E87C40" stroke-width="4" stroke-linecap="round" stroke-linejoin="round"/><path d="M38.227 17.126C47.49 17.126 55 14.623 55 11.535s-7.51-5.591-16.773-5.591c-9.264 0-16.773 2.503-16.773 5.59 0 3.089 7.51 5.592 16.773 5.592zM55 24.58c0 3.094-7.455 5.592-16.773 5.592-9.319 0-16.773-2.498-16.773-5.591" stroke="#110303" stroke-width="4" stroke-linecap="round" stroke-linejoin="round"/><path d="M21.454 11.535v26.091c0 3.094 7.454 5.592 16.773 5.592C47.545 43.218 55 40.72 55 37.626V11.535" stroke="#110303" stroke-width="4" stroke-linecap="round" stroke-linejoin="round"/></svg><svg fill="none" viewBox="0 0 1008 635" id="macbook" xmlns="http://www.w3.org/2000/svg"><g filter="url(#ffilter0_f_181_202)"><ellipse cx="504.5" cy="586" rx="452.5" ry="5" fill="#000"/></g><path d="M99 28c0-14.912 12.088-27 27-27h760c14.912 0 27 12.088 27 27v522a3 3 0 01-3 3H102a3 3 0 01-3-3V28z" fill="#1A202C" stroke="#4A5568" stroke-width="2"/><path d="M103 27c0-12.15 9.85-22 22-22h762c12.15 0 22 9.85 22 22v506H103V27z" fill="#000"/><path fill="#fff" d="M119 31h770v480H119z"/><path d="M464.173 535.545V545h1.643v-6.509h.088l2.613 6.481h1.228l2.613-6.467h.087V545h1.644v-9.455h-2.096l-2.807 6.851h-.111l-2.806-6.851h-2.096zm13.748 9.598c1.112 0 1.777-.522 2.082-1.117h.055V545h1.607v-4.746c0-1.874-1.528-2.437-2.881-2.437-1.491 0-2.636.665-3.005 1.957l1.56.222c.166-.485.637-.9 1.454-.9.776 0 1.2.397 1.2 1.094v.027c0 .48-.503.504-1.754.637-1.376.148-2.691.559-2.691 2.156 0 1.394 1.02 2.133 2.373 2.133zm.434-1.228c-.698 0-1.196-.318-1.196-.932 0-.642.559-.91 1.306-1.016.439-.06 1.316-.171 1.533-.346v.835c0 .79-.637 1.459-1.643 1.459zm8.083 1.223c1.782 0 2.918-1.057 3.038-2.562h-1.598c-.143.762-.692 1.201-1.426 1.201-1.043 0-1.717-.873-1.717-2.322 0-1.432.687-2.29 1.717-2.29.803 0 1.297.517 1.426 1.2h1.598c-.116-1.537-1.316-2.548-3.047-2.548-2.078 0-3.389 1.5-3.389 3.665 0 2.147 1.279 3.656 3.398 3.656zm4.484-.138h1.643v-1.117h.097c.263.517.813 1.242 2.031 1.242 1.672 0 2.923-1.325 2.923-3.661 0-2.364-1.288-3.647-2.927-3.647-1.251 0-1.773.752-2.027 1.265h-.069v-3.537h-1.671V545zm1.639-3.545c0-1.376.591-2.267 1.666-2.267 1.113 0 1.685.946 1.685 2.267 0 1.329-.581 2.299-1.685 2.299-1.066 0-1.666-.924-1.666-2.299zm9.568 3.683c2.078 0 3.398-1.463 3.398-3.656 0-2.197-1.32-3.665-3.398-3.665-2.077 0-3.397 1.468-3.397 3.665 0 2.193 1.32 3.656 3.397 3.656zm.01-1.338c-1.15 0-1.713-1.025-1.713-2.322 0-1.298.563-2.336 1.713-2.336 1.131 0 1.694 1.038 1.694 2.336 0 1.297-.563 2.322-1.694 2.322zm7.9 1.338c2.077 0 3.397-1.463 3.397-3.656 0-2.197-1.32-3.665-3.397-3.665-2.078 0-3.398 1.468-3.398 3.665 0 2.193 1.32 3.656 3.398 3.656zm.009-1.338c-1.15 0-1.713-1.025-1.713-2.322 0-1.298.563-2.336 1.713-2.336 1.131 0 1.694 1.038 1.694 2.336 0 1.297-.563 2.322-1.694 2.322zm4.807 1.2h1.671v-2.382l.609-.651 2.17 3.033h1.999l-2.908-4.03 2.746-3.061h-1.952l-2.549 2.848h-.115v-5.212h-1.671V545zm10.7 0h1.712v-3.195h1.81c2.184 0 3.356-1.311 3.356-3.13 0-1.805-1.159-3.13-3.333-3.13h-3.545V545zm1.712-4.603v-3.42h1.57c1.283 0 1.851.692 1.851 1.698 0 1.007-.568 1.722-1.842 1.722h-1.579zm6.58 4.603h1.671v-4.169c0-.9.679-1.537 1.597-1.537.282 0 .633.051.776.097v-1.537a3.975 3.975 0 00-.6-.046c-.813 0-1.491.461-1.75 1.283h-.074v-1.182h-1.62V545zm7.955.138c2.078 0 3.398-1.463 3.398-3.656 0-2.197-1.32-3.665-3.398-3.665-2.077 0-3.397 1.468-3.397 3.665 0 2.193 1.32 3.656 3.397 3.656zm.01-1.338c-1.15 0-1.713-1.025-1.713-2.322 0-1.298.563-2.336 1.713-2.336 1.131 0 1.694 1.038 1.694 2.336 0 1.297-.563 2.322-1.694 2.322z" fill="#A0AEC0"/><path d="M0 552a2 2 0 012-2h1004c1.1 0 2 .895 2 2v16H0v-16z" fill="#A3ACB1"/><path d="M0 552a2 2 0 012-2h1004c1.1 0 2 .895 2 2v16H0v-16z" fill="url(#fpaint0_linear_181_202)"/><path d="M0 568h1008l-20.354 4.105a400.021 400.021 0 01-79.08 7.895H97.909a400.007 400.007 0 01-86.772-9.525L0 568z" fill="#647279"/><path d="M0 568h1008l-20.354 4.105a400.021 400.021 0 01-79.08 7.895H97.909a400.007 400.007 0 01-86.772-9.525L0 568z" fill="url(#fpaint1_linear_181_202)"/><path fill-rule="evenodd" clip-rule="evenodd" d="M421.033 550c.514 7.818 7.019 14 14.967 14h137c7.948 0 14.453-6.182 14.967-14H421.033z" fill="#96A1A8"/><path fill-rule="evenodd" clip-rule="evenodd" d="M421.033 550c.514 7.818 7.019 14 14.967 14h137c7.948 0 14.453-6.182 14.967-14H421.033z" fill="url(#fpaint2_linear_181_202)"/><defs><linearGradient id="fpaint0_linear_181_202" x1="0" y1="559" x2="1008" y2="559" gradientUnits="userSpaceOnUse"><stop stop-color="#0D1012"/><stop offset=".03" stop-color="#CAD4DB"/><stop offset=".063" stop-color="#242729"/><stop offset=".134" stop-color="#A3ACB1"/><stop offset=".866" stop-color="#A3ACB1"/><stop offset=".942" stop-color="#242729"/><stop offset=".971" stop-color="#CAD4DB"/><stop offset=".996" stop-color="#0D1012"/></linearGradient><linearGradient id="fpaint1_linear_181_202" x1="504" y1="568" x2="504" y2="580" gradientUnits="userSpaceOnUse"><stop stop-color="#7A7F83"/><stop offset="1" stop-color="#0B0B0E"/></linearGradient><linearGradient id="fpaint2_linear_181_202" x1="437.5" y1="558.5" x2="574.5" y2="558.5" gradientUnits="userSpaceOnUse"><stop stop-color="#3C3C3C"/><stop offset=".318" stop-color="#3C3C3C" stop-opacity="0"/><stop offset=".661" stop-color="#3C3C3C" stop-opacity="0"/><stop offset="1" stop-color="#444"/></linearGradient><filter id="ffilter0_f_181_202" x="8" y="537" width="993" height="98" filterUnits="userSpaceOnUse" color-interpolation-filters="sRGB"><feFlood flood-opacity="0" result="BackgroundImageFix"/><feBlend in="SourceGraphic" in2="BackgroundImageFix" result="shape"/><feGaussianBlur stdDeviation="22" result="effect1_foregroundBlur_181_202"/></filter></defs></svg><svg fill="none" viewBox="0 0 27 14" id="menu" xmlns="http://www.w3.org/2000/svg"><path fill="#fff" d="M0 0h27v2H0zM0 6h27v2H0zM0 12h27v2H0z"/></svg><svg fill="none" viewBox="0 0 61 61" id="mockup" xmlns="http://www.w3.org/2000/svg"><path d="M39.506 26.737L20.52 15.788M49 40.661V23.784a4.22 4.22 0 00-2.11-3.65l-14.768-8.439a4.218 4.218 0 00-4.219 0l-14.768 8.439a4.219 4.219 0 00-2.11 3.65V40.66a4.219 4.219 0 002.11 3.65l14.768 8.439a4.22 4.22 0 004.22 0L46.89 44.31a4.22 4.22 0 002.11-3.65z" stroke="#E87C40" stroke-width="4" stroke-linecap="round" stroke-linejoin="round"/><path d="M11.595 21.59l18.418 10.654L48.43 21.59M30.013 53.488V32.223" stroke="#E87C40" stroke-width="4" stroke-linecap="round" stroke-linejoin="round"/><path d="M46.506 19.737L27.52 8.788M56 33.661V16.784a4.22 4.22 0 00-2.11-3.65L39.122 4.695a4.22 4.22 0 00-4.219 0l-14.768 8.439a4.219 4.219 0 00-2.11 3.65V33.66a4.219 4.219 0 002.11 3.65l14.768 8.439a4.22 4.22 0 004.22 0L53.89 37.31a4.22 4.22 0 002.11-3.65z" stroke="#110303" stroke-width="4" stroke-linecap="round" stroke-linejoin="round"/><path d="M18.595 14.59l18.418 10.654L55.43 14.59M37.013 46.488V25.223" stroke="#110303" stroke-width="4" stroke-linecap="round" stroke-linejoin="round"/></svg><svg fill="none" viewBox="0 0 61 61" id="stack" xmlns="http://www.w3.org/2000/svg"><path d="M36.874 44.75L51.3 30.327 36.875 15.9M17.64 15.9L3.216 30.326 17.641 44.75" stroke="#E87C40" stroke-width="5" stroke-linecap="round" stroke-linejoin="round"/><path d="M43.874 37.75L58.3 23.327 43.875 8.9M24.64 8.9L10.216 23.326 24.641 37.75" stroke="#110303" stroke-width="5" stroke-linecap="round" stroke-linejoin="round"/></svg></svg>